<svg xmlns="http://www.w3.org/2000/svg">
  <!-- Icon sprite — generated locally, referenced via <use href="assets/icons/sprite.svg#id"> -->
  <symbol id="ic-01" viewBox="0 0 24 24"><g fill="none" stroke="currentColor" stroke-width="2.2" stroke-linecap="round"><path d="M12 5v14M5 12h14"/></g></symbol>
  <symbol id="ic-02" viewBox="0 0 24 24"><g fill="none" stroke="currentColor" stroke-width="2" stroke-linecap="round"><path d="M4 6h16M4 12h16M4 18h16"/></g></symbol>
  <symbol id="ic-03" viewBox="0 0 24 24"><g fill="none" stroke="currentColor" stroke-width="2" stroke-linecap="round"><path d="M12 3v3m0 12v3M3 12h3m12 0h3"/></g></symbol>
  <symbol id="ic-04" viewBox="0 0 24 24"><g fill="none" stroke="currentColor" stroke-width="2.2" stroke-linecap="round" stroke-linejoin="round"><path d="M19 12H5m6-6-6 6 6 6"/></g></symbol>
  <symbol id="ic-05" viewBox="0 0 24 24"><g fill="none" stroke="currentColor" stroke-width="2.2" stroke-linecap="round" stroke-linejoin="round"><path d="M20 6 9 17l-5-5"/></g></symbol>
  <symbol id="ic-06" viewBox="0 0 24 24"><g fill="none" stroke="currentColor" stroke-width="2" stroke-linecap="round" stroke-linejoin="round"><path d="M17 21v-2a4 4 0 0 0-4-4H5a4 4 0 0 0-4 4v2"/><circle cx="9" cy="7" r="4"/><path d="M23 21v-2a4 4 0 0 0-3-3.87M16 3.13a4 4 0 0 1 0 7.75"/></g></symbol>
  <symbol id="ic-07" viewBox="0 0 24 24"><g fill="none" stroke="currentColor" stroke-width="2" stroke-linecap="round" stroke-linejoin="round"><circle cx="12" cy="8" r="6"/><path d="M15.5 13 17 22l-5-3-5 3 1.5-9"/></g></symbol>
  <symbol id="ic-08" viewBox="0 0 24 24"><g fill="none" stroke="currentColor" stroke-width="2" stroke-linecap="round" stroke-linejoin="round"><path d="M3 17l6-6 4 4 8-8"/><path d="M14 7h7v7"/></g></symbol>
  <symbol id="ic-09" viewBox="0 0 24 24"><g fill="none" stroke="currentColor" stroke-width="2" stroke-linecap="round" stroke-linejoin="round"><path d="M22 16.9v3a2 2 0 0 1-2.2 2 19.8 19.8 0 0 1-8.6-3 19.5 19.5 0 0 1-6-6 19.8 19.8 0 0 1-3-8.7A2 2 0 0 1 4.1 2h3a2 2 0 0 1 2 1.7c.1 1 .4 2 .7 2.8a2 2 0 0 1-.4 2.1L8.1 9.9a16 16 0 0 0 6 6l1.3-1.3a2 2 0 0 1 2.1-.4c.9.3 1.9.6 2.8.7a2 2 0 0 1 1.7 2z"/></g></symbol>
  <symbol id="ic-10" viewBox="0 0 24 24"><g fill="none" stroke="currentColor" stroke-width="2" stroke-linecap="round" stroke-linejoin="round"><path d="M3 11l18-6-6 18-2-8-8-2z"/></g></symbol>
  <symbol id="ic-11" viewBox="0 0 24 24"><g fill="none" stroke="currentColor" stroke-width="2" stroke-linecap="round" stroke-linejoin="round"><rect x="2" y="3" width="20" height="14" rx="2"/><path d="M8 21h8M12 17v4"/></g></symbol>
  <symbol id="ic-12" viewBox="0 0 24 24"><g fill="none" stroke="currentColor" stroke-width="2" stroke-linecap="round" stroke-linejoin="round"><path d="M22 10 12 5 2 10l10 5 10-5z"/><path d="M6 12v5c0 1.7 2.7 3 6 3s6-1.3 6-3v-5"/></g></symbol>
  <symbol id="ic-13" viewBox="0 0 24 24"><g fill="none" stroke="currentColor" stroke-width="2" stroke-linecap="round" stroke-linejoin="round"><circle cx="12" cy="12" r="9"/><path d="M12 7v5l3 3"/></g></symbol>
  <symbol id="ic-14" viewBox="0 0 24 24"><g fill="none" stroke="currentColor" stroke-width="2" stroke-linecap="round"><circle cx="12" cy="12" r="9"/><path d="M12 7v5l3 3"/></g></symbol>
  <symbol id="ic-15" viewBox="0 0 24 24"><g fill="none" stroke="currentColor" stroke-width="2" stroke-linecap="round" stroke-linejoin="round"><path d="M17 21v-2a4 4 0 0 0-4-4H5a4 4 0 0 0-4 4v2"/><circle cx="9" cy="7" r="4"/></g></symbol>
  <symbol id="ic-16" viewBox="0 0 24 24"><g fill="none" stroke="currentColor" stroke-width="2.2" stroke-linecap="round" stroke-linejoin="round"><circle cx="12" cy="12" r="9"/><path d="m8 12 3 3 5-6"/></g></symbol>
  <symbol id="ic-17" viewBox="0 0 24 24"><g fill="currentColor"><path d="M12 2l2.9 6.6 7.1.6-5.4 4.7 1.6 7L12 17.3 5.8 20.9l1.6-7L2 9.2l7.1-.6z"/></g></symbol>
  <symbol id="ic-18" viewBox="0 0 24 24"><g fill="none" stroke="currentColor" stroke-width="2" stroke-linecap="round"><rect x="3" y="5" width="18" height="16" rx="2"/><path d="M8 3v4m8-4v4M3 11h18"/></g></symbol>
  <symbol id="ic-19" viewBox="0 0 24 24"><g fill="none" stroke="currentColor" stroke-width="2.4" stroke-linecap="round"><path d="M12 5v14M5 12h14"/></g></symbol>
  <symbol id="ic-20" viewBox="0 0 24 24"><g fill="none" stroke="currentColor" stroke-width="2" stroke-linecap="round" stroke-linejoin="round"><circle cx="12" cy="12" r="9"/><path d="m8 12 3 3 5-6"/></g></symbol>
  <symbol id="ic-21" viewBox="0 0 24 24"><g fill="none" stroke="currentColor" stroke-width="2"><rect x="3" y="3" width="18" height="18" rx="5"/><circle cx="12" cy="12" r="4"/><circle cx="17.5" cy="6.5" r="1" fill="currentColor" stroke="none"/></g></symbol>
  <symbol id="ic-22" viewBox="0 0 24 24"><g fill="none" stroke="currentColor" stroke-width="2" stroke-linecap="round" stroke-linejoin="round"><path d="m21 3-9 9m0 0 4 8 5-17-9 9z"/></g></symbol>
  <symbol id="ic-23" viewBox="0 0 24 24"><g fill="none" stroke="currentColor" stroke-width="2" stroke-linecap="round" stroke-linejoin="round"><path d="M21 11.5a8.5 8.5 0 0 1-12.4 7.5L3 21l2-5.6A8.5 8.5 0 1 1 21 11.5z"/></g></symbol>
  <symbol id="ic-24" viewBox="0 0 24 24"><g fill="none" stroke="currentColor" stroke-width="2" stroke-linecap="round" stroke-linejoin="round"><rect x="2" y="4" width="20" height="16" rx="2"/><path d="m2 7 10 6 10-6"/></g></symbol>
  <symbol id="ic-25" viewBox="0 0 24 24"><g fill="none" stroke="currentColor" stroke-width="2" stroke-linecap="round" stroke-linejoin="round"><path d="M20 10c0 6-8 12-8 12S4 16 4 10a8 8 0 1 1 16 0z"/><circle cx="12" cy="10" r="3"/></g></symbol>
  <symbol id="ic-26" viewBox="0 0 24 24"><g fill="none" stroke="currentColor" stroke-width="2" stroke-linecap="round"><circle cx="11" cy="11" r="7"/><path d="m21 21-4.3-4.3"/></g></symbol>
  <symbol id="ic-27" viewBox="0 0 24 24"><g fill="none" stroke="currentColor" stroke-width="2" stroke-linecap="round" stroke-linejoin="round"><circle cx="12" cy="9" r="6"/><path d="m9.5 14-1.5 8 4-2.5 4 2.5-1.5-8"/></g></symbol>
  <symbol id="ic-28" viewBox="0 0 24 24"><g fill="none" stroke="currentColor" stroke-width="2" stroke-linecap="round" stroke-linejoin="round"><path d="M21 11.5a8.4 8.4 0 0 1-8.5 8.3 8.6 8.6 0 0 1-3.6-.8L3 21l2-5.6a8.2 8.2 0 0 1-1-4A8.4 8.4 0 0 1 12.5 3 8.4 8.4 0 0 1 21 11.5z"/></g></symbol>
  <symbol id="ic-29" viewBox="0 0 24 24"><g fill="none" stroke="currentColor" stroke-width="2" stroke-linecap="round" stroke-linejoin="round"><path d="M12 2 3 7v10l9 5 9-5V7l-9-5z"/><path d="M12 8v5M12 16.5v.01"/></g></symbol>
  <symbol id="ic-30" viewBox="0 0 24 24"><g fill="none" stroke="currentColor" stroke-width="2" stroke-linecap="round"><circle cx="12" cy="8" r="6"/><path d="M15.5 13 17 22l-5-3-5 3 1.5-9"/></g></symbol>
  <symbol id="ic-31" viewBox="0 0 24 24"><g fill="none" stroke="currentColor" stroke-width="2" stroke-linecap="round" stroke-linejoin="round"><path d="M12 22s8-4 8-10V5l-8-3-8 3v7c0 6 8 10 8 10z"/><path d="m9 12 2 2 4-4"/></g></symbol>
  <symbol id="ic-32" viewBox="0 0 24 24"><g fill="none" stroke="currentColor" stroke-width="2.2" stroke-linecap="round" stroke-linejoin="round"><path d="M12 22s8-4 8-10V5l-8-3-8 3v7c0 6 8 10 8 10z"/></g></symbol>
  <symbol id="ic-33" viewBox="0 0 24 24"><g fill="none" stroke="currentColor" stroke-width="2.2" stroke-linecap="round" stroke-linejoin="round"><path d="M13 2 3 14h7l-1 8 10-12h-7l1-8z"/></g></symbol>
  <symbol id="ic-34" viewBox="0 0 24 24"><g fill="none" stroke="currentColor" stroke-width="2.2" stroke-linecap="round" stroke-linejoin="round"><path d="M22 10 12 5 2 10l10 5 10-5z"/><path d="M6 12v5c0 1.7 2.7 3 6 3s6-1.3 6-3v-5"/></g></symbol>
  <symbol id="ic-35" viewBox="0 0 24 24"><g fill="none" stroke="currentColor" stroke-width="2.2" stroke-linecap="round" stroke-linejoin="round"><path d="M17 21v-2a4 4 0 0 0-4-4H5a4 4 0 0 0-4 4v2"/><circle cx="9" cy="7" r="4"/></g></symbol>
  <symbol id="ic-36" viewBox="0 0 24 24"><g fill="none" stroke="currentColor" stroke-width="2.2" stroke-linecap="round" stroke-linejoin="round"><path d="M3 17l6-6 4 4 8-8"/><path d="M14 7h7v7"/></g></symbol>
  <symbol id="ic-37" viewBox="0 0 24 24"><g fill="none" stroke="currentColor" stroke-width="2.2" stroke-linecap="round" stroke-linejoin="round"><path d="M9 3h6M10 3v6.5L4.5 19a2 2 0 0 0 1.8 3h11.4a2 2 0 0 0 1.8-3L14 9.5V3"/></g></symbol>
  <symbol id="ic-38" viewBox="0 0 24 24"><g fill="none" stroke="currentColor" stroke-width="2" stroke-linecap="round" stroke-linejoin="round"><path d="M12 22s8-4 8-10V5l-8-3-8 3v7c0 6 8 10 8 10z"/></g></symbol>
  <symbol id="ic-39" viewBox="0 0 24 24"><g fill="none" stroke="currentColor" stroke-width="2.2" stroke-linecap="round"><path d="M4 7h16M4 12h16M4 17h16"/></g></symbol>
  <symbol id="ic-40" viewBox="0 0 24 24"><g fill="none" stroke="currentColor" stroke-width="2" stroke-linecap="round" stroke-linejoin="round"><path d="M18 8a6 6 0 0 0-12 0c0 7-3 9-3 9h18s-3-2-3-9"/><path d="M13.7 21a2 2 0 0 1-3.4 0"/></g></symbol>
  <symbol id="ic-41" viewBox="0 0 24 24"><g fill="none" stroke="currentColor" stroke-width="2" stroke-linecap="round" stroke-linejoin="round"><rect x="3" y="3" width="8" height="10" rx="2"/><rect x="13" y="3" width="8" height="6" rx="2"/><rect x="13" y="11" width="8" height="10" rx="2"/><rect x="3" y="15" width="8" height="6" rx="2"/></g></symbol>
  <symbol id="ic-42" viewBox="0 0 24 24"><g fill="none" stroke="currentColor" stroke-width="2" stroke-linecap="round" stroke-linejoin="round"><path d="M22 10 12 5 2 10l10 5 10-5z"/><path d="M6 12.5V17c0 1.7 2.7 3 6 3s6-1.3 6-3v-4.5"/><path d="M22 10v6"/></g></symbol>
  <symbol id="ic-43" viewBox="0 0 24 24"><g fill="none" stroke="currentColor" stroke-width="2" stroke-linecap="round" stroke-linejoin="round"><path d="M6 2 3 6v14a2 2 0 0 0 2 2h14a2 2 0 0 0 2-2V6l-3-4z"/><path d="M3 6h18"/><path d="M16 10a4 4 0 0 1-8 0"/></g></symbol>
  <symbol id="ic-44" viewBox="0 0 24 24"><g fill="none" stroke="currentColor" stroke-width="2" stroke-linecap="round" stroke-linejoin="round"><path d="M20.8 4.6a5.5 5.5 0 0 0-7.8 0L12 5.6l-1-1a5.5 5.5 0 0 0-7.8 7.8l1 1L12 21.2l7.8-7.8 1-1a5.5 5.5 0 0 0 0-7.8z"/></g></symbol>
  <symbol id="ic-45" viewBox="0 0 24 24"><g fill="none" stroke="currentColor" stroke-width="2" stroke-linecap="round" stroke-linejoin="round"><path d="M21 11.5a8.4 8.4 0 0 1-8.5 8.3 8.6 8.6 0 0 1-3.6-.8L3 21l2-5.6a8.2 8.2 0 0 1-1-4A8.4 8.4 0 0 1 12.5 3 8.4 8.4 0 0 1 21 11.5z"/><path d="M8.5 11.5h.01M12.5 11.5h.01M16.5 11.5h.01"/></g></symbol>
  <symbol id="ic-46" viewBox="0 0 24 24"><g fill="none" stroke="currentColor" stroke-width="1.8" stroke-linecap="round" stroke-linejoin="round"><path d="M21 11.5a8.4 8.4 0 0 1-8.5 8.3 8.6 8.6 0 0 1-3.6-.8L3 21l2-5.6a8.2 8.2 0 0 1-1-4A8.4 8.4 0 0 1 12.5 3 8.4 8.4 0 0 1 21 11.5z"/></g></symbol>
  <symbol id="ic-47" viewBox="0 0 24 24"><g fill="none" stroke="currentColor" stroke-width="2" stroke-linecap="round" stroke-linejoin="round"><path d="M19 12H5m6-6-6 6 6 6"/></g></symbol>
  <symbol id="ic-48" viewBox="0 0 24 24"><g fill="none" stroke="currentColor" stroke-width="1.6"><path d="M12 2l2.9 6.6 7.1.6-5.4 4.7 1.6 7L12 17.3 5.8 20.9l1.6-7L2 9.2l7.1-.6z"/></g></symbol>
  <symbol id="ic-49" viewBox="0 0 24 24"><g fill="currentColor"><path d="M8 5v14l11-7z"/></g></symbol>
  <symbol id="ic-50" viewBox="0 0 24 24"><g fill="none" stroke="currentColor" stroke-width="2" stroke-linecap="round"><rect x="4" y="10" width="16" height="11" rx="2"/><path d="M8 10V7a4 4 0 0 1 8 0v3"/></g></symbol>
  <symbol id="ic-51" viewBox="0 0 24 24"><g fill="none" stroke="currentColor" stroke-width="2" stroke-linecap="round" stroke-linejoin="round"><path d="M20 6 9 17l-5-5"/></g></symbol>
  <symbol id="ic-52" viewBox="0 0 24 24"><g fill="none" stroke="currentColor" stroke-width="2" stroke-linecap="round" stroke-linejoin="round"><path d="M12 2 3 7v10l9 5 9-5V7l-9-5z"/></g></symbol>
  <symbol id="ic-53" viewBox="0 0 24 24"><g fill="none" stroke="currentColor" stroke-width="2" stroke-linecap="round" stroke-linejoin="round"><path d="M22 10 12 5 2 10l10 5 10-5z"/><path d="M6 12.5V17c0 1.7 2.7 3 6 3s6-1.3 6-3v-4.5"/></g></symbol>
  <symbol id="ic-54" viewBox="0 0 24 24"><g fill="none" stroke="currentColor" stroke-width="2" stroke-linecap="round" stroke-linejoin="round"><path d="M14 2H6a2 2 0 0 0-2 2v16a2 2 0 0 0 2 2h12a2 2 0 0 0 2-2V8z"/><path d="M14 2v6h6M9 15h6M9 11h2"/></g></symbol>
  <symbol id="ic-55" viewBox="0 0 24 24"><g fill="none" stroke="currentColor" stroke-width="2" stroke-linecap="round" stroke-linejoin="round"><path d="M6 9V2h12v7"/><path d="M6 18H4a2 2 0 0 1-2-2v-5a2 2 0 0 1 2-2h16a2 2 0 0 1 2 2v5a2 2 0 0 1-2 2h-2"/><rect x="6" y="14" width="12" height="8"/></g></symbol>
  <symbol id="ic-56" viewBox="0 0 24 24"><g fill="none" stroke="currentColor" stroke-width="2.4" stroke-linecap="round" stroke-linejoin="round"><path d="M20 6 9 17l-5-5"/></g></symbol>
  <symbol id="ic-57" viewBox="0 0 24 24"><g fill="none" stroke="currentColor" stroke-width="2" stroke-linecap="round"><path d="M2 12s3.5-7 10-7 10 7 10 7-3.5 7-10 7-10-7-10-7z"/><circle cx="12" cy="12" r="3"/></g></symbol>
  <symbol id="ic-58" viewBox="0 0 24 24"><g fill="none" stroke="currentColor" stroke-width="2" stroke-linecap="round" stroke-linejoin="round"><path d="M3 6h18M8 6V4a2 2 0 0 1 2-2h4a2 2 0 0 1 2 2v2m3 0v14a2 2 0 0 1-2 2H7a2 2 0 0 1-2-2V6"/></g></symbol>
  <symbol id="ic-59" viewBox="0 0 24 24"><g fill="none" stroke="currentColor" stroke-width="2.4" stroke-linecap="round"><path d="M18 6 6 18M6 6l12 12"/></g></symbol>
  <symbol id="ic-60" viewBox="0 0 24 24"><g fill="none" stroke="currentColor" stroke-width="1.8" stroke-linecap="round" stroke-linejoin="round"><path d="M17 21v-2a4 4 0 0 0-4-4H5a4 4 0 0 0-4 4v2"/><circle cx="9" cy="7" r="4"/></g></symbol>
  <symbol id="ic-61" viewBox="0 0 24 24"><g fill="none" stroke="currentColor" stroke-width="1.8" stroke-linecap="round" stroke-linejoin="round"><path d="M5 12s2.5-6 7-6 7 6 7 6-2.5 6-7 6-7-6-7-6z"/><circle cx="12" cy="12" r="2.5"/></g></symbol>
  <symbol id="ic-62" viewBox="0 0 24 24"><g fill="none" stroke="currentColor" stroke-width="1.8" stroke-linecap="round"><path d="M2 12s3.5-7 10-7 10 7 10 7-3.5 7-10 7-10-7-10-7z"/><circle cx="12" cy="12" r="3"/></g></symbol>
  <symbol id="ic-63" viewBox="0 0 24 24"><g fill="none" stroke="currentColor" stroke-width="1.8" stroke-linecap="round" stroke-linejoin="round"><rect x="2" y="4" width="20" height="16" rx="2"/><path d="m2 7 10 6 10-6"/></g></symbol>
  <symbol id="ic-64" viewBox="0 0 24 24"><g fill="none" stroke="currentColor" stroke-width="1.8" stroke-linecap="round"><rect x="4" y="10" width="16" height="11" rx="2"/><path d="M8 10V7a4 4 0 0 1 8 0v3"/></g></symbol>
  <symbol id="ic-65" viewBox="0 0 24 24"><g fill="none" stroke="currentColor" stroke-width="2" stroke-linecap="round" stroke-linejoin="round"><path d="M9 21H5a2 2 0 0 1-2-2V5a2 2 0 0 1 2-2h4"/><path d="m16 17 5-5-5-5M21 12H9"/></g></symbol>
  <symbol id="ic-video" viewBox="0 0 24 24"><g fill="none" stroke="currentColor" stroke-width="1.8" stroke-linecap="round" stroke-linejoin="round"><rect x="2" y="4" width="20" height="16" rx="3"/><path d="m10 9 5 3-5 3z"/></g></symbol>
  <symbol id="ic-file" viewBox="0 0 24 24"><g fill="none" stroke="currentColor" stroke-width="1.8" stroke-linecap="round" stroke-linejoin="round"><path d="M14 2H6a2 2 0 0 0-2 2v16a2 2 0 0 0 2 2h12a2 2 0 0 0 2-2V8z"/><path d="M14 2v6h6M9 15h6M9 11h2"/></g></symbol>
  <symbol id="ic-cert" viewBox="0 0 24 24"><g fill="none" stroke="currentColor" stroke-width="1.8" stroke-linecap="round" stroke-linejoin="round"><circle cx="12" cy="9" r="6"/><path d="m9.5 14-1.5 8 4-2.5 4 2.5-1.5-8"/></g></symbol>
  <symbol id="ic-chat" viewBox="0 0 24 24"><g fill="none" stroke="currentColor" stroke-width="1.8" stroke-linecap="round" stroke-linejoin="round"><path d="M21 11.5a8.4 8.4 0 0 1-8.5 8.3 8.6 8.6 0 0 1-3.6-.8L3 21l2-5.6a8.2 8.2 0 0 1-1-4A8.4 8.4 0 0 1 12.5 3 8.4 8.4 0 0 1 21 11.5z"/><path d="M8.5 11.5h.01M12.5 11.5h.01M16.5 11.5h.01"/></g></symbol>
  <symbol id="ic-inf" viewBox="0 0 24 24"><g fill="none" stroke="currentColor" stroke-width="1.8" stroke-linecap="round" stroke-linejoin="round"><path d="M12 2 3 7v10l9 5 9-5V7l-9-5z"/><path d="M12 8v5M12 16.5v.01"/></g></symbol>
  <symbol id="ic-globe" viewBox="0 0 24 24"><g fill="none" stroke="currentColor" stroke-width="1.8" stroke-linecap="round" stroke-linejoin="round"><circle cx="12" cy="12" r="9"/><path d="M3 12h18M12 3a15 15 0 0 1 0 18M12 3a15 15 0 0 0 0 18"/></g></symbol>
</svg>
